<svg id="visual" viewBox="0 0 1920 1080" width="1920" height="1080" xmlns="http://www.w3.org/2000/svg" xmlns:xlink="http://www.w3.org/1999/xlink" version="1.1"><rect x="0" y="0" width="1920" height="1080" fill="#000000"></rect><path d="M0 807L80 807C160 807 320 807 480 807.3C640 807.7 800 808.3 960 812.2C1120 816 1280 823 1440 826.3C1600 829.7 1760 829.3 1840 829.2L1920 829L1920 1081L1840 1081C1760 1081 1600 1081 1440 1081C1280 1081 1120 1081 960 1081C800 1081 640 1081 480 1081C320 1081 160 1081 80 1081L0 1081Z" fill="#004d9f"></path><path d="M0 867L80 859.5C160 852 320 837 480 830.7C640 824.3 800 826.7 960 828.3C1120 830 1280 831 1440 829.3C1600 827.7 1760 823.3 1840 821.2L1920 819L1920 1081L1840 1081C1760 1081 1600 1081 1440 1081C1280 1081 1120 1081 960 1081C800 1081 640 1081 480 1081C320 1081 160 1081 80 1081L0 1081Z" fill="#004496"></path><path d="M0 849L80 850.3C160 851.7 320 854.3 480 858.2C640 862 800 867 960 866.2C1120 865.3 1280 858.7 1440 860.2C1600 861.7 1760 871.3 1840 876.2L1920 881L1920 1081L1840 1081C1760 1081 1600 1081 1440 1081C1280 1081 1120 1081 960 1081C800 1081 640 1081 480 1081C320 1081 160 1081 80 1081L0 1081Z" fill="#003c8d"></path><path d="M0 915L80 912.2C160 909.3 320 903.7 480 899C640 894.3 800 890.7 960 891.5C1120 892.3 1280 897.7 1440 902.2C1600 906.7 1760 910.3 1840 912.2L1920 914L1920 1081L1840 1081C1760 1081 1600 1081 1440 1081C1280 1081 1120 1081 960 1081C800 1081 640 1081 480 1081C320 1081 160 1081 80 1081L0 1081Z" fill="#013383"></path><path d="M0 914L80 914.3C160 914.7 320 915.3 480 917C640 918.7 800 921.3 960 923.3C1120 925.3 1280 926.7 1440 928.8C1600 931 1760 934 1840 935.5L1920 937L1920 1081L1840 1081C1760 1081 1600 1081 1440 1081C1280 1081 1120 1081 960 1081C800 1081 640 1081 480 1081C320 1081 160 1081 80 1081L0 1081Z" fill="#012b7a"></path><path d="M0 948L80 946.5C160 945 320 942 480 945.2C640 948.3 800 957.7 960 964.3C1120 971 1280 975 1440 975.2C1600 975.3 1760 971.7 1840 969.8L1920 968L1920 1081L1840 1081C1760 1081 1600 1081 1440 1081C1280 1081 1120 1081 960 1081C800 1081 640 1081 480 1081C320 1081 160 1081 80 1081L0 1081Z" fill="#012370"></path><path d="M0 981L80 980.3C160 979.7 320 978.3 480 981.3C640 984.3 800 991.7 960 996.5C1120 1001.3 1280 1003.7 1440 1003.7C1600 1003.7 1760 1001.3 1840 1000.2L1920 999L1920 1081L1840 1081C1760 1081 1600 1081 1440 1081C1280 1081 1120 1081 960 1081C800 1081 640 1081 480 1081C320 1081 160 1081 80 1081L0 1081Z" fill="#011a67"></path><path d="M0 1016L80 1016.5C160 1017 320 1018 480 1016C640 1014 800 1009 960 1006.5C1120 1004 1280 1004 1440 1007C1600 1010 1760 1016 1840 1019L1920 1022L1920 1081L1840 1081C1760 1081 1600 1081 1440 1081C1280 1081 1120 1081 960 1081C800 1081 640 1081 480 1081C320 1081 160 1081 80 1081L0 1081Z" fill="#01115d"></path><path d="M0 1052L80 1052.8C160 1053.7 320 1055.3 480 1054.5C640 1053.7 800 1050.3 960 1047.3C1120 1044.3 1280 1041.7 1440 1039.5C1600 1037.3 1760 1035.7 1840 1034.8L1920 1034L1920 1081L1840 1081C1760 1081 1600 1081 1440 1081C1280 1081 1120 1081 960 1081C800 1081 640 1081 480 1081C320 1081 160 1081 80 1081L0 1081Z" fill="#000854"></path></svg>